<svg width="24" height="24" viewBox="0 0 24 24" fill="none" xmlns="http://www.w3.org/2000/svg">
<path d="M15.3 5.55011C14.54 5.54999 13.8103 5.84824 13.2679 6.38068C12.7255 6.91313 12.4139 7.63721 12.4 8.39711L12.372 9.97211C12.3703 10.0567 12.3509 10.1399 12.3148 10.2164C12.2787 10.2929 12.2268 10.3609 12.1626 10.416C12.0984 10.471 12.0233 10.5119 11.9422 10.5359C11.8611 10.5599 11.7758 10.5664 11.692 10.5551L10.131 10.3431C8.07699 10.0631 6.10899 9.11711 4.22099 7.54411C3.62299 10.8541 4.79099 13.1471 7.60399 14.9161L9.35099 16.0141C9.434 16.0663 9.50296 16.138 9.55184 16.223C9.60072 16.308 9.62803 16.4036 9.63138 16.5016C9.63474 16.5996 9.61403 16.6969 9.57108 16.785C9.52813 16.8731 9.46423 16.9494 9.38499 17.0071L7.79299 18.1701C8.73999 18.2291 9.63899 18.1871 10.385 18.0391C15.103 17.0971 18.24 13.5471 18.24 7.69111C18.24 7.21311 17.228 5.55011 15.3 5.55011ZM10.4 8.36011C10.4174 7.39616 10.7189 6.45878 11.2665 5.66534C11.8142 4.87189 12.5838 4.25763 13.4789 3.89948C14.374 3.54133 15.3549 3.45519 16.2987 3.65186C17.2426 3.84853 18.1074 4.31926 18.785 5.00511C19.496 5.00011 20.101 5.18011 21.454 4.36011C21.119 6.00011 20.954 6.71211 20.24 7.69111C20.24 15.3331 15.543 19.0491 10.777 20.0001C7.50899 20.6521 2.75699 19.5811 1.39499 18.1591C2.08899 18.1051 4.90899 17.8021 6.53899 16.6091C5.15999 15.7001 -0.329011 12.4701 3.27799 3.78611C4.97099 5.76311 6.68799 7.10911 8.42799 7.82311C9.58599 8.29811 9.86999 8.28811 10.401 8.36111L10.4 8.36011Z" fill="black"/>
</svg>
