<svg width="1920" height="88" viewBox="0 0 1920 88" fill="none" xmlns="http://www.w3.org/2000/svg">
<g clip-path="url(#clip0_2_3)">
<rect width="1920" height="6285" transform="translate(0 -1778)" fill="white"/>
<path d="M1820.25 39.6641C1819.23 39.6641 1818.32 39.7031 1817.51 39.7812C1816.71 39.8594 1816.03 40.0469 1815.47 40.3438C1814.91 40.6406 1814.48 41.0859 1814.18 41.6797C1813.88 42.2578 1813.73 43.0547 1813.73 44.0703V45.2656H1838.02V52.1328H1813.73V65H1805.04V43.3438C1805.04 41.6875 1805.28 40.2031 1805.77 38.8906C1806.27 37.5781 1807.09 36.4766 1808.25 35.5859C1809.41 34.6797 1810.94 33.9922 1812.84 33.5234C1814.75 33.0391 1817.12 32.7969 1819.97 32.7969H1839.16V39.6641H1820.25ZM1857.09 32.7969V50.9375C1857.09 52.1406 1857.19 53.2344 1857.4 54.2188C1857.6 55.1875 1857.97 56.0234 1858.52 56.7266C1859.07 57.4141 1859.83 57.9531 1860.82 58.3438C1861.8 58.7188 1863.08 58.9062 1864.66 58.9062C1865.85 58.9062 1867.09 58.7422 1868.39 58.4141C1869.7 58.0859 1871 57.6484 1872.28 57.1016C1873.56 56.5547 1874.78 55.9297 1875.94 55.2266C1877.11 54.5078 1878.15 53.7656 1879.08 53V32.7969H1887.75V65H1879.08V60.5938C1877.98 61.2188 1876.82 61.8516 1875.58 62.4922C1874.35 63.1172 1873.04 63.6875 1871.65 64.2031C1870.26 64.7031 1868.78 65.1094 1867.22 65.4219C1865.65 65.75 1864.01 65.9141 1862.27 65.9141C1860.1 65.9141 1858.15 65.6484 1856.44 65.1172C1854.72 64.6016 1853.26 63.8672 1852.08 62.9141C1850.89 61.9453 1849.97 60.7812 1849.33 59.4219C1848.71 58.0469 1848.4 56.5156 1848.4 54.8281V32.7969H1857.09ZM1917.82 39.8047V65H1909.12V39.8047H1895.46V32.7969H1931.5V39.8047H1917.82ZM1947.74 32.7969V50.9375C1947.74 52.1406 1947.85 53.2344 1948.05 54.2188C1948.25 55.1875 1948.63 56.0234 1949.17 56.7266C1949.72 57.4141 1950.49 57.9531 1951.47 58.3438C1952.46 58.7188 1953.74 58.9062 1955.31 58.9062C1956.5 58.9062 1957.74 58.7422 1959.04 58.4141C1960.35 58.0859 1961.65 57.6484 1962.93 57.1016C1964.21 56.5547 1965.43 55.9297 1966.59 55.2266C1967.76 54.5078 1968.81 53.7656 1969.73 53V32.7969H1978.4V65H1969.73V60.5938C1968.63 61.2188 1967.47 61.8516 1966.24 62.4922C1965 63.1172 1963.69 63.6875 1962.3 64.2031C1960.91 64.7031 1959.43 65.1094 1957.87 65.4219C1956.31 65.75 1954.66 65.9141 1952.92 65.9141C1950.75 65.9141 1948.81 65.6484 1947.09 65.1172C1945.37 64.6016 1943.92 63.8672 1942.73 62.9141C1941.54 61.9453 1940.63 60.7812 1939.99 59.4219C1939.36 58.0469 1939.05 56.5156 1939.05 54.8281V32.7969H1947.74ZM2020.05 40.0859C2019.81 40.0078 2019.47 39.9062 2019.02 39.7812C2018.58 39.6406 2018.06 39.5078 2017.47 39.3828C2016.88 39.2422 2016.22 39.125 2015.5 39.0312C2014.8 38.9375 2014.07 38.8906 2013.32 38.8906C2011.76 38.8906 2010.3 39.0859 2008.94 39.4766C2007.59 39.8516 2006.34 40.3594 2005.16 41C2003.99 41.625 2002.9 42.3438 2001.88 43.1562C2000.88 43.9531 1999.96 44.7734 1999.12 45.6172V65H1990.42V32.7969H1999.12V38.0234C2000.16 37.2422 2001.23 36.4922 2002.33 35.7734C2003.44 35.0391 2004.59 34.3906 2005.77 33.8281C2006.98 33.2656 2008.24 32.8203 2009.57 32.4922C2010.9 32.1484 2012.3 31.9766 2013.79 31.9766C2014.35 31.9766 2014.92 32.0078 2015.5 32.0703C2016.09 32.1172 2016.66 32.1797 2017.21 32.2578C2017.77 32.3359 2018.3 32.4219 2018.78 32.5156C2019.27 32.6094 2019.69 32.7031 2020.05 32.7969V40.0859ZM2054.8 65V61.8359C2053.69 62.4453 2052.5 62.9844 2051.22 63.4531C2049.95 63.9219 2048.63 64.3203 2047.26 64.6484C2045.88 64.9766 2044.46 65.2188 2042.99 65.375C2041.54 65.5469 2040.07 65.6328 2038.58 65.6328C2036.85 65.6328 2035.17 65.4688 2033.55 65.1406C2031.94 64.8125 2030.51 64.2812 2029.26 63.5469C2028.01 62.8125 2027 61.8516 2026.23 60.6641C2025.48 59.4766 2025.11 58.0234 2025.11 56.3047C2025.11 54.1328 2025.7 52.3281 2026.89 50.8906C2028.08 49.4375 2029.89 48.25 2032.33 47.3281C2034.76 46.4062 2037.84 45.6953 2041.56 45.1953C2045.3 44.6953 2049.71 44.3047 2054.8 44.0234V43.3438C2054.8 42.8125 2054.66 42.2891 2054.38 41.7734C2054.1 41.2422 2053.58 40.7812 2052.83 40.3906C2052.1 39.9844 2051.08 39.6562 2049.79 39.4062C2048.51 39.1562 2046.87 39.0312 2044.87 39.0312C2043.29 39.0312 2041.73 39.1172 2040.18 39.2891C2038.65 39.4453 2037.16 39.6641 2035.73 39.9453C2034.3 40.2266 2032.95 40.5547 2031.67 40.9297C2030.39 41.3047 2029.23 41.6953 2028.18 42.1016V34.3672C2029.27 34.0859 2030.5 33.8125 2031.86 33.5469C2033.22 33.2812 2034.63 33.0547 2036.1 32.8672C2037.57 32.6641 2039.05 32.5078 2040.55 32.3984C2042.05 32.2734 2043.49 32.2109 2044.87 32.2109C2047.57 32.2109 2050.06 32.4375 2052.34 32.8906C2054.62 33.3281 2056.58 34.0156 2058.23 34.9531C2059.88 35.8906 2061.17 37.0781 2062.09 38.5156C2063.03 39.9531 2063.5 41.6641 2063.5 43.6484V65H2054.8ZM2054.8 50.3047C2051.46 50.4297 2048.62 50.6094 2046.27 50.8438C2043.94 51.0781 2042.01 51.3516 2040.46 51.6641C2038.91 51.9766 2037.69 52.3125 2036.8 52.6719C2035.93 53.0312 2035.27 53.3984 2034.83 53.7734C2034.4 54.1484 2034.12 54.5234 2034.01 54.8984C2033.92 55.2734 2033.87 55.6172 2033.87 55.9297C2033.87 56.3047 2033.98 56.6719 2034.18 57.0312C2034.38 57.375 2034.73 57.6797 2035.23 57.9453C2035.75 58.2109 2036.43 58.4219 2037.27 58.5781C2038.12 58.7344 2039.18 58.8125 2040.46 58.8125C2041.88 58.8125 2043.27 58.7031 2044.63 58.4844C2045.99 58.2656 2047.28 57.9688 2048.5 57.5938C2049.72 57.2031 2050.86 56.75 2051.92 56.2344C2053 55.7031 2053.96 55.1406 2054.8 54.5469V50.3047ZM2084.05 32.7969V36.3359C2084.82 35.8516 2085.64 35.3516 2086.54 34.8359C2087.44 34.3203 2088.42 33.8516 2089.47 33.4297C2090.53 33.0078 2091.66 32.6641 2092.86 32.3984C2094.08 32.1172 2095.39 31.9766 2096.8 31.9766C2098.18 31.9766 2099.38 32.125 2100.41 32.4219C2101.44 32.7031 2102.33 33.0781 2103.08 33.5469C2103.85 34 2104.5 34.5156 2105.03 35.0938C2105.56 35.6562 2106.02 36.2188 2106.41 36.7812C2107.52 36.0625 2108.61 35.4062 2109.69 34.8125C2110.77 34.2188 2111.86 33.7109 2112.95 33.2891C2114.04 32.8672 2115.16 32.5469 2116.3 32.3281C2117.44 32.0938 2118.63 31.9766 2119.86 31.9766C2121.83 31.9766 2123.59 32.25 2125.14 32.7969C2126.7 33.3438 2128.02 34.0938 2129.1 35.0469C2130.18 36 2131 37.125 2131.56 38.4219C2132.14 39.7031 2132.43 41.0781 2132.43 42.5469V65H2123.73V43.7891C2123.73 42.9297 2123.6 42.1875 2123.33 41.5625C2123.07 40.9375 2122.71 40.4297 2122.25 40.0391C2121.82 39.6484 2121.29 39.3594 2120.68 39.1719C2120.09 38.9844 2119.46 38.8906 2118.79 38.8906C2115.66 38.8906 2112.1 40.2969 2108.1 43.1094C2108.14 43.375 2108.18 43.6875 2108.19 44.0469C2108.22 44.4062 2108.24 44.7656 2108.24 45.125V65H2099.54V43.6016C2099.54 42.7422 2099.41 42.0156 2099.14 41.4219C2098.88 40.8125 2098.51 40.3203 2098.04 39.9453C2097.59 39.5703 2097.06 39.3047 2096.45 39.1484C2095.86 38.9766 2095.22 38.8906 2094.55 38.8906C2093.74 38.8906 2092.88 39.0078 2091.97 39.2422C2091.08 39.4766 2090.18 39.8047 2089.25 40.2266C2088.35 40.6484 2087.45 41.1484 2086.56 41.7266C2085.68 42.3047 2084.85 42.9297 2084.05 43.6016V65H2075.36V32.7969H2084.05ZM2171.61 65V61.8359C2170.5 62.4453 2169.31 62.9844 2168.03 63.4531C2166.76 63.9219 2165.44 64.3203 2164.07 64.6484C2162.69 64.9766 2161.27 65.2188 2159.8 65.375C2158.35 65.5469 2156.88 65.6328 2155.39 65.6328C2153.66 65.6328 2151.98 65.4688 2150.35 65.1406C2148.74 64.8125 2147.32 64.2812 2146.07 63.5469C2144.82 62.8125 2143.81 61.8516 2143.04 60.6641C2142.29 59.4766 2141.92 58.0234 2141.92 56.3047C2141.92 54.1328 2142.51 52.3281 2143.7 50.8906C2144.89 49.4375 2146.7 48.25 2149.14 47.3281C2151.57 46.4062 2154.65 45.6953 2158.37 45.1953C2162.1 44.6953 2166.52 44.3047 2171.61 44.0234V43.3438C2171.61 42.8125 2171.47 42.2891 2171.19 41.7734C2170.91 41.2422 2170.39 40.7812 2169.64 40.3906C2168.91 39.9844 2167.89 39.6562 2166.6 39.4062C2165.32 39.1562 2163.67 39.0312 2161.67 39.0312C2160.1 39.0312 2158.53 39.1172 2156.99 39.2891C2155.46 39.4453 2153.97 39.6641 2152.53 39.9453C2151.11 40.2266 2149.76 40.5547 2148.48 40.9297C2147.2 41.3047 2146.03 41.6953 2144.99 42.1016V34.3672C2146.08 34.0859 2147.31 33.8125 2148.67 33.5469C2150.03 33.2812 2151.44 33.0547 2152.91 32.8672C2154.38 32.6641 2155.86 32.5078 2157.36 32.3984C2158.86 32.2734 2160.3 32.2109 2161.67 32.2109C2164.38 32.2109 2166.87 32.4375 2169.15 32.8906C2171.43 33.3281 2173.39 34.0156 2175.03 34.9531C2176.69 35.8906 2177.98 37.0781 2178.9 38.5156C2179.84 39.9531 2180.31 41.6641 2180.31 43.6484V65H2171.61ZM2171.61 50.3047C2168.27 50.4297 2165.42 50.6094 2163.08 50.8438C2160.75 51.0781 2158.82 51.3516 2157.27 51.6641C2155.72 51.9766 2154.5 52.3125 2153.61 52.6719C2152.74 53.0312 2152.08 53.3984 2151.64 53.7734C2151.21 54.1484 2150.93 54.5234 2150.82 54.8984C2150.73 55.2734 2150.68 55.6172 2150.68 55.9297C2150.68 56.3047 2150.78 56.6719 2150.99 57.0312C2151.19 57.375 2151.54 57.6797 2152.04 57.9453C2152.56 58.2109 2153.24 58.4219 2154.08 58.5781C2154.92 58.7344 2155.99 58.8125 2157.27 58.8125C2158.69 58.8125 2160.08 58.7031 2161.44 58.4844C2162.8 58.2656 2164.09 57.9688 2165.31 57.5938C2166.53 57.2031 2167.67 56.75 2168.73 56.2344C2169.81 55.7031 2170.77 55.1406 2171.61 54.5469V50.3047Z" fill="#E5E5E5"/>
<path d="M1384.52 62.7969C1383.4 63.2656 1382.27 63.6875 1381.12 64.0625C1379.98 64.4375 1378.8 64.7578 1377.59 65.0234C1376.37 65.3047 1375.08 65.5156 1373.72 65.6562C1372.38 65.7969 1370.93 65.8672 1369.38 65.8672C1366.1 65.8672 1363.08 65.5156 1360.31 64.8125C1357.56 64.1094 1355.19 63.0547 1353.19 61.6484C1351.2 60.2266 1349.66 58.4609 1348.55 56.3516C1347.44 54.2266 1346.88 51.75 1346.88 48.9219C1346.88 46.0938 1347.44 43.625 1348.55 41.5156C1349.66 39.3906 1351.2 37.625 1353.19 36.2188C1355.19 34.7969 1357.56 33.7344 1360.31 33.0312C1363.08 32.3281 1366.1 31.9766 1369.38 31.9766C1370.93 31.9766 1372.38 32.0469 1373.72 32.1875C1375.08 32.3281 1376.37 32.5391 1377.59 32.8203C1378.8 33.0859 1379.98 33.4062 1381.12 33.7812C1382.27 34.1562 1383.4 34.5781 1384.52 35.0469V42.875C1383.63 42.3906 1382.7 41.9141 1381.71 41.4453C1380.73 40.9609 1379.64 40.5312 1378.45 40.1562C1377.27 39.7656 1375.96 39.4531 1374.54 39.2188C1373.12 38.9688 1371.52 38.8438 1369.73 38.8438C1367 38.8438 1364.73 39.125 1362.91 39.6875C1361.12 40.25 1359.68 41 1358.6 41.9375C1357.52 42.875 1356.77 43.9531 1356.33 45.1719C1355.89 46.375 1355.67 47.625 1355.67 48.9219C1355.67 49.7812 1355.77 50.6328 1355.95 51.4766C1356.14 52.3047 1356.45 53.0938 1356.89 53.8438C1357.33 54.5781 1357.9 55.2578 1358.6 55.8828C1359.3 56.5078 1360.18 57.0469 1361.23 57.5C1362.27 57.9531 1363.49 58.3125 1364.88 58.5781C1366.29 58.8281 1367.91 58.9531 1369.73 58.9531C1371.52 58.9531 1373.12 58.8438 1374.54 58.625C1375.96 58.3906 1377.27 58.0859 1378.45 57.7109C1379.64 57.3359 1380.73 56.9141 1381.71 56.4453C1382.7 55.9609 1383.63 55.4688 1384.52 54.9688V62.7969ZM1394.55 65V32.7969H1403.25V65H1394.55ZM1433.32 39.8047V65H1424.62V39.8047H1410.96V32.7969H1447V39.8047H1433.32ZM1492.94 52.625C1492.94 54.7188 1492.42 56.5859 1491.39 58.2266C1490.36 59.8672 1488.89 61.2578 1486.99 62.3984C1485.1 63.5234 1482.8 64.3828 1480.1 64.9766C1477.41 65.5703 1474.39 65.8672 1471.05 65.8672C1469.58 65.8672 1468.03 65.8047 1466.41 65.6797C1464.8 65.5703 1463.22 65.4062 1461.67 65.1875C1460.14 64.9844 1458.71 64.75 1457.36 64.4844C1456.02 64.2031 1454.89 63.8984 1453.96 63.5703V55.9297C1454.96 56.3516 1456.07 56.75 1457.29 57.125C1458.53 57.5 1459.86 57.8359 1461.3 58.1328C1462.74 58.4141 1464.28 58.6406 1465.92 58.8125C1467.57 58.9688 1469.32 59.0469 1471.17 59.0469C1472.9 59.0469 1474.42 58.9453 1475.74 58.7422C1477.06 58.5391 1478.21 58.2656 1479.18 57.9219C1480.15 57.5781 1480.96 57.1875 1481.6 56.75C1482.24 56.2969 1482.75 55.8359 1483.14 55.3672C1483.53 54.8828 1483.81 54.4062 1483.96 53.9375C1484.14 53.4688 1484.22 53.0312 1484.22 52.625V49.7891C1482.63 50.9609 1480.73 51.9297 1478.53 52.6953C1476.32 53.4453 1473.81 53.8203 1471 53.8203C1467.74 53.8203 1465.01 53.5078 1462.82 52.8828C1460.65 52.2422 1458.91 51.3281 1457.6 50.1406C1456.28 48.9375 1455.35 47.4766 1454.78 45.7578C1454.24 44.0391 1453.96 42.1016 1453.96 39.9453V32.7969H1462.71V39.0781C1462.71 40.3438 1462.87 41.4688 1463.2 42.4531C1463.54 43.4375 1464.07 44.2656 1464.79 44.9375C1465.53 45.5938 1466.47 46.0938 1467.63 46.4375C1468.78 46.7812 1470.18 46.9531 1471.82 46.9531C1473.21 46.9531 1474.53 46.7812 1475.76 46.4375C1477.01 46.0938 1478.16 45.6406 1479.21 45.0781C1480.25 44.5156 1481.2 43.875 1482.04 43.1562C1482.89 42.4375 1483.61 41.7031 1484.22 40.9531V32.7969H1492.94V52.625ZM1546.51 65H1536.39L1520.1 32.7969H1529.8L1541.52 57.0312L1553.22 32.7969H1562.92L1546.51 65ZM1570.14 65V32.7969H1578.83V65H1570.14ZM1620.53 41.8672C1619.92 41.5703 1619.11 41.2344 1618.11 40.8594C1617.11 40.4844 1615.98 40.1328 1614.71 39.8047C1613.45 39.4609 1612.07 39.1797 1610.59 38.9609C1609.1 38.7266 1607.58 38.6094 1606.02 38.6094C1604.77 38.6094 1603.7 38.6484 1602.81 38.7266C1601.93 38.8047 1601.19 38.9062 1600.58 39.0312C1599.99 39.1562 1599.51 39.3047 1599.15 39.4766C1598.81 39.6328 1598.54 39.7969 1598.35 39.9688C1598.17 40.1406 1598.04 40.3125 1597.98 40.4844C1597.93 40.6562 1597.91 40.8125 1597.91 40.9531C1597.91 41.4219 1598.14 41.8359 1598.61 42.1953C1599.08 42.5391 1599.72 42.8516 1600.53 43.1328C1601.35 43.3984 1602.29 43.6562 1603.37 43.9062C1604.45 44.1406 1605.59 44.3906 1606.79 44.6562C1608.01 44.9062 1609.26 45.1875 1610.54 45.5C1611.84 45.7969 1613.09 46.1484 1614.29 46.5547C1615.51 46.9609 1616.66 47.4375 1617.74 47.9844C1618.82 48.5156 1619.76 49.1406 1620.57 49.8594C1621.39 50.5781 1622.03 51.4062 1622.49 52.3438C1622.96 53.2812 1623.2 54.3516 1623.2 55.5547C1623.2 57.1016 1622.92 58.4297 1622.38 59.5391C1621.83 60.6484 1621.1 61.5859 1620.17 62.3516C1619.27 63.1172 1618.21 63.7344 1617.01 64.2031C1615.81 64.6562 1614.54 65.0078 1613.21 65.2578C1611.9 65.5078 1610.57 65.6719 1609.21 65.75C1607.86 65.8281 1606.58 65.8672 1605.36 65.8672C1602.17 65.8672 1599.22 65.6016 1596.5 65.0703C1593.8 64.5547 1591.41 63.9062 1589.33 63.125V55.4375C1591.47 56.625 1593.91 57.5547 1596.64 58.2266C1599.39 58.8984 1602.33 59.2344 1605.46 59.2344C1607.3 59.2344 1608.8 59.1406 1609.96 58.9531C1611.13 58.75 1612.04 58.5 1612.7 58.2031C1613.35 57.8906 1613.8 57.5547 1614.03 57.1953C1614.27 56.8359 1614.39 56.4922 1614.39 56.1641C1614.39 55.6484 1614.15 55.2031 1613.68 54.8281C1613.21 54.4375 1612.57 54.1016 1611.76 53.8203C1610.95 53.5234 1610 53.2578 1608.92 53.0234C1607.85 52.7734 1606.7 52.5312 1605.48 52.2969C1604.28 52.0469 1603.03 51.7812 1601.75 51.5C1600.47 51.2188 1599.22 50.8906 1598 50.5156C1596.8 50.125 1595.66 49.6797 1594.58 49.1797C1593.5 48.6641 1592.56 48.0625 1591.74 47.375C1590.93 46.6719 1590.29 45.8672 1589.82 44.9609C1589.35 44.0391 1589.12 42.9766 1589.12 41.7734C1589.12 40.3516 1589.37 39.125 1589.87 38.0938C1590.37 37.0625 1591.04 36.1875 1591.89 35.4688C1592.74 34.7344 1593.73 34.1406 1594.84 33.6875C1595.96 33.2344 1597.14 32.8828 1598.38 32.6328C1599.61 32.3828 1600.86 32.2109 1602.13 32.1172C1603.39 32.0234 1604.6 31.9766 1605.74 31.9766C1606.99 31.9766 1608.27 32.0391 1609.58 32.1641C1610.91 32.2891 1612.21 32.4688 1613.49 32.7031C1614.78 32.9219 1616.01 33.1797 1617.2 33.4766C1618.4 33.7734 1619.51 34.0859 1620.53 34.4141V41.8672ZM1633.37 65V32.7969H1642.06V65H1633.37ZM1695.76 48.9219C1695.76 51.6875 1695.25 54.1328 1694.23 56.2578C1693.22 58.3672 1691.76 60.1328 1689.87 61.5547C1687.98 62.9766 1685.69 64.0547 1682.98 64.7891C1680.3 65.5078 1677.27 65.8672 1673.91 65.8672C1670.55 65.8672 1667.51 65.5078 1664.8 64.7891C1662.09 64.0547 1659.79 62.9766 1657.88 61.5547C1655.98 60.1328 1654.51 58.3672 1653.48 56.2578C1652.44 54.1328 1651.93 51.6875 1651.93 48.9219C1651.93 46.1562 1652.44 43.7188 1653.48 41.6094C1654.51 39.4844 1655.98 37.7109 1657.88 36.2891C1659.79 34.8672 1662.09 33.7969 1664.8 33.0781C1667.51 32.3438 1670.55 31.9766 1673.91 31.9766C1677.27 31.9766 1680.3 32.3438 1682.98 33.0781C1685.69 33.7969 1687.98 34.8672 1689.87 36.2891C1691.76 37.7109 1693.22 39.4844 1694.23 41.6094C1695.25 43.7188 1695.76 46.1562 1695.76 48.9219ZM1686.97 48.9219C1686.97 47.7188 1686.77 46.5234 1686.38 45.3359C1686.01 44.1328 1685.33 43.0547 1684.34 42.1016C1683.37 41.1484 1682.05 40.375 1680.36 39.7812C1678.67 39.1875 1676.52 38.8906 1673.91 38.8906C1672.16 38.8906 1670.62 39.0312 1669.3 39.3125C1667.97 39.5781 1666.82 39.9531 1665.85 40.4375C1664.88 40.9219 1664.07 41.4922 1663.41 42.1484C1662.76 42.7891 1662.23 43.4844 1661.84 44.2344C1661.45 44.9688 1661.17 45.7422 1661 46.5547C1660.84 47.3516 1660.76 48.1406 1660.76 48.9219C1660.76 49.7188 1660.84 50.5234 1661 51.3359C1661.17 52.1484 1661.45 52.9297 1661.84 53.6797C1662.23 54.4141 1662.76 55.1016 1663.41 55.7422C1664.07 56.3828 1664.88 56.9453 1665.85 57.4297C1666.82 57.8984 1667.97 58.2734 1669.3 58.5547C1670.62 58.8203 1672.16 58.9531 1673.91 58.9531C1676.52 58.9531 1678.67 58.6562 1680.36 58.0625C1682.05 57.4688 1683.37 56.6953 1684.34 55.7422C1685.33 54.7891 1686.01 53.7188 1686.38 52.5312C1686.77 51.3281 1686.97 50.125 1686.97 48.9219ZM1736.28 65V46.9531C1736.28 45.75 1736.18 44.6641 1735.97 43.6953C1735.77 42.7109 1735.39 41.875 1734.83 41.1875C1734.28 40.4844 1733.5 39.9453 1732.5 39.5703C1731.52 39.1797 1730.25 38.9844 1728.68 38.9844C1727.5 38.9844 1726.25 39.1484 1724.93 39.4766C1723.64 39.7891 1722.35 40.2109 1721.07 40.7422C1719.79 41.2734 1718.56 41.8906 1717.39 42.5938C1716.23 43.2969 1715.2 44.0312 1714.29 44.7969V65H1705.6V32.7969H1714.29V37.2031C1715.39 36.5781 1716.55 35.9609 1717.79 35.3516C1719.02 34.7266 1720.33 34.1641 1721.72 33.6641C1723.11 33.1641 1724.59 32.7578 1726.15 32.4453C1727.72 32.1328 1729.36 31.9766 1731.1 31.9766C1733.27 31.9766 1735.21 32.2422 1736.91 32.7734C1738.63 33.2891 1740.08 34.0312 1741.27 35C1742.46 35.9531 1743.36 37.1172 1743.99 38.4922C1744.63 39.8516 1744.95 41.375 1744.95 43.0625V65H1736.28Z" fill="#E5E5E5"/>
<path d="M666.523 62.7969C665.398 63.2656 664.266 63.6875 663.125 64.0625C661.984 64.4375 660.805 64.7578 659.586 65.0234C658.367 65.3047 657.078 65.5156 655.719 65.6562C654.375 65.7969 652.93 65.8672 651.383 65.8672C648.102 65.8672 645.078 65.5156 642.312 64.8125C639.562 64.1094 637.188 63.0547 635.188 61.6484C633.203 60.2266 631.656 58.4609 630.547 56.3516C629.438 54.2266 628.883 51.75 628.883 48.9219C628.883 46.0938 629.438 43.625 630.547 41.5156C631.656 39.3906 633.203 37.625 635.188 36.2188C637.188 34.7969 639.562 33.7344 642.312 33.0312C645.078 32.3281 648.102 31.9766 651.383 31.9766C652.93 31.9766 654.375 32.0469 655.719 32.1875C657.078 32.3281 658.367 32.5391 659.586 32.8203C660.805 33.0859 661.984 33.4062 663.125 33.7812C664.266 34.1562 665.398 34.5781 666.523 35.0469V42.875C665.633 42.3906 664.695 41.9141 663.711 41.4453C662.727 40.9609 661.641 40.5312 660.453 40.1562C659.266 39.7656 657.961 39.4531 656.539 39.2188C655.117 38.9688 653.516 38.8438 651.734 38.8438C649 38.8438 646.727 39.125 644.914 39.6875C643.117 40.25 641.68 41 640.602 41.9375C639.523 42.875 638.766 43.9531 638.328 45.1719C637.891 46.375 637.672 47.625 637.672 48.9219C637.672 49.7812 637.766 50.6328 637.953 51.4766C638.141 52.3047 638.453 53.0938 638.891 53.8438C639.328 54.5781 639.898 55.2578 640.602 55.8828C641.305 56.5078 642.18 57.0469 643.227 57.5C644.273 57.9531 645.492 58.3125 646.883 58.5781C648.289 58.8281 649.906 58.9531 651.734 58.9531C653.516 58.9531 655.117 58.8438 656.539 58.625C657.961 58.3906 659.266 58.0859 660.453 57.7109C661.641 57.3359 662.727 56.9141 663.711 56.4453C664.695 55.9609 665.633 55.4688 666.523 54.9688V62.7969ZM718.225 48.9219C718.225 51.6875 717.717 54.1328 716.701 56.2578C715.686 58.3672 714.232 60.1328 712.342 61.5547C710.451 62.9766 708.154 64.0547 705.451 64.7891C702.764 65.5078 699.74 65.8672 696.381 65.8672C693.022 65.8672 689.982 65.5078 687.264 64.7891C684.561 64.0547 682.256 62.9766 680.35 61.5547C678.443 60.1328 676.975 58.3672 675.943 56.2578C674.912 54.1328 674.397 51.6875 674.397 48.9219C674.397 46.1562 674.912 43.7188 675.943 41.6094C676.975 39.4844 678.443 37.7109 680.35 36.2891C682.256 34.8672 684.561 33.7969 687.264 33.0781C689.982 32.3438 693.022 31.9766 696.381 31.9766C699.74 31.9766 702.764 32.3438 705.451 33.0781C708.154 33.7969 710.451 34.8672 712.342 36.2891C714.232 37.7109 715.686 39.4844 716.701 41.6094C717.717 43.7188 718.225 46.1562 718.225 48.9219ZM709.436 48.9219C709.436 47.7188 709.24 46.5234 708.85 45.3359C708.475 44.1328 707.795 43.0547 706.811 42.1016C705.842 41.1484 704.514 40.375 702.826 39.7812C701.139 39.1875 698.99 38.8906 696.381 38.8906C694.631 38.8906 693.092 39.0312 691.764 39.3125C690.436 39.5781 689.287 39.9531 688.318 40.4375C687.35 40.9219 686.537 41.4922 685.881 42.1484C685.225 42.7891 684.701 43.4844 684.311 44.2344C683.92 44.9688 683.639 45.7422 683.467 46.5547C683.311 47.3516 683.232 48.1406 683.232 48.9219C683.232 49.7188 683.311 50.5234 683.467 51.3359C683.639 52.1484 683.92 52.9297 684.311 53.6797C684.701 54.4141 685.225 55.1016 685.881 55.7422C686.537 56.3828 687.35 56.9453 688.318 57.4297C689.287 57.8984 690.436 58.2734 691.764 58.5547C693.092 58.8203 694.631 58.9531 696.381 58.9531C698.99 58.9531 701.139 58.6562 702.826 58.0625C704.514 57.4688 705.842 56.6953 706.811 55.7422C707.795 54.7891 708.475 53.7188 708.85 52.5312C709.24 51.3281 709.436 50.125 709.436 48.9219ZM758.746 65V46.9531C758.746 45.75 758.645 44.6641 758.442 43.6953C758.238 42.7109 757.856 41.875 757.293 41.1875C756.746 40.4844 755.973 39.9453 754.973 39.5703C753.988 39.1797 752.715 38.9844 751.152 38.9844C749.965 38.9844 748.715 39.1484 747.402 39.4766C746.106 39.7891 744.817 40.2109 743.535 40.7422C742.254 41.2734 741.027 41.8906 739.856 42.5938C738.699 43.2969 737.668 44.0312 736.762 44.7969V65H728.067V32.7969H736.762V37.2031C737.856 36.5781 739.02 35.9609 740.254 35.3516C741.488 34.7266 742.801 34.1641 744.192 33.6641C745.582 33.1641 747.059 32.7578 748.621 32.4453C750.184 32.1328 751.832 31.9766 753.567 31.9766C755.738 31.9766 757.676 32.2422 759.379 32.7734C761.098 33.2891 762.551 34.0312 763.738 35C764.926 35.9531 765.832 37.1172 766.457 38.4922C767.098 39.8516 767.418 41.375 767.418 43.0625V65H758.746ZM814.783 62.7969C813.658 63.2656 812.526 63.6875 811.385 64.0625C810.244 64.4375 809.065 64.7578 807.846 65.0234C806.627 65.3047 805.338 65.5156 803.979 65.6562C802.635 65.7969 801.19 65.8672 799.643 65.8672C796.362 65.8672 793.338 65.5156 790.572 64.8125C787.822 64.1094 785.447 63.0547 783.447 61.6484C781.463 60.2266 779.916 58.4609 778.807 56.3516C777.697 54.2266 777.143 51.75 777.143 48.9219C777.143 46.0938 777.697 43.625 778.807 41.5156C779.916 39.3906 781.463 37.625 783.447 36.2188C785.447 34.7969 787.822 33.7344 790.572 33.0312C793.338 32.3281 796.362 31.9766 799.643 31.9766C801.19 31.9766 802.635 32.0469 803.979 32.1875C805.338 32.3281 806.627 32.5391 807.846 32.8203C809.065 33.0859 810.244 33.4062 811.385 33.7812C812.526 34.1562 813.658 34.5781 814.783 35.0469V42.875C813.893 42.3906 812.955 41.9141 811.971 41.4453C810.987 40.9609 809.901 40.5312 808.713 40.1562C807.526 39.7656 806.221 39.4531 804.799 39.2188C803.377 38.9688 801.776 38.8438 799.994 38.8438C797.26 38.8438 794.987 39.125 793.174 39.6875C791.377 40.25 789.94 41 788.862 41.9375C787.783 42.875 787.026 43.9531 786.588 45.1719C786.151 46.375 785.932 47.625 785.932 48.9219C785.932 49.7812 786.026 50.6328 786.213 51.4766C786.401 52.3047 786.713 53.0938 787.151 53.8438C787.588 54.5781 788.158 55.2578 788.862 55.8828C789.565 56.5078 790.44 57.0469 791.487 57.5C792.533 57.9531 793.752 58.3125 795.143 58.5781C796.549 58.8281 798.166 58.9531 799.994 58.9531C801.776 58.9531 803.377 58.8438 804.799 58.625C806.221 58.3906 807.526 58.0859 808.713 57.7109C809.901 57.3359 810.987 56.9141 811.971 56.4453C812.955 55.9609 813.893 55.4688 814.783 54.9688V62.7969ZM854.438 40.0859C854.203 40.0078 853.86 39.9062 853.407 39.7812C852.969 39.6406 852.453 39.5078 851.86 39.3828C851.266 39.2422 850.61 39.125 849.891 39.0312C849.188 38.9375 848.461 38.8906 847.711 38.8906C846.149 38.8906 844.688 39.0859 843.328 39.4766C841.985 39.8516 840.727 40.3594 839.555 41C838.383 41.625 837.289 42.3438 836.274 43.1562C835.274 43.9531 834.352 44.7734 833.508 45.6172V65H824.813V32.7969H833.508V38.0234C834.555 37.2422 835.625 36.4922 836.719 35.7734C837.828 35.0391 838.977 34.3906 840.164 33.8281C841.367 33.2656 842.633 32.8203 843.961 32.4922C845.289 32.1484 846.696 31.9766 848.18 31.9766C848.742 31.9766 849.313 32.0078 849.891 32.0703C850.485 32.1172 851.055 32.1797 851.602 32.2578C852.164 32.3359 852.688 32.4219 853.172 32.5156C853.657 32.6094 854.078 32.7031 854.438 32.7969V40.0859ZM897.795 63.4062C895.155 64.2812 892.514 64.9062 889.873 65.2812C887.248 65.6719 884.561 65.8672 881.811 65.8672C878.295 65.8672 875.163 65.4922 872.413 64.7422C869.678 63.9766 867.373 62.875 865.498 61.4375C863.623 60 862.194 58.2422 861.209 56.1641C860.225 54.0859 859.733 51.7344 859.733 49.1094C859.733 46.6719 860.225 44.4141 861.209 42.3359C862.209 40.2422 863.616 38.4297 865.428 36.8984C867.256 35.3516 869.459 34.1484 872.038 33.2891C874.616 32.4141 877.491 31.9766 880.663 31.9766C883.584 31.9766 886.256 32.375 888.678 33.1719C891.116 33.9531 893.202 35.1172 894.936 36.6641C896.686 38.2109 898.038 40.1172 898.991 42.3828C899.959 44.6484 900.444 47.2578 900.444 50.2109V52.3672H868.709C868.991 53.3828 869.452 54.3125 870.092 55.1562C870.748 56 871.631 56.7188 872.741 57.3125C873.85 57.9062 875.209 58.3672 876.819 58.6953C878.444 59.0234 880.381 59.1875 882.631 59.1875C884.225 59.1875 885.788 59.0938 887.319 58.9062C888.85 58.7031 890.28 58.4453 891.608 58.1328C892.936 57.8047 894.131 57.4453 895.194 57.0547C896.272 56.6641 897.139 56.2734 897.795 55.8828V63.4062ZM891.795 45.9922C891.717 45.1953 891.475 44.375 891.069 43.5312C890.678 42.6719 890.053 41.8984 889.194 41.2109C888.334 40.5234 887.209 39.9609 885.819 39.5234C884.428 39.0703 882.694 38.8438 880.616 38.8438C878.663 38.8438 876.975 39.0859 875.553 39.5703C874.131 40.0547 872.936 40.6562 871.967 41.375C871.014 42.0938 870.272 42.8672 869.741 43.6953C869.209 44.5234 868.866 45.2891 868.709 45.9922H891.795ZM927.84 39.8047V65H919.145V39.8047H905.481V32.7969H941.528V39.8047H927.84ZM985.12 63.4062C982.479 64.2812 979.838 64.9062 977.198 65.2812C974.573 65.6719 971.885 65.8672 969.135 65.8672C965.62 65.8672 962.487 65.4922 959.737 64.7422C957.003 63.9766 954.698 62.875 952.823 61.4375C950.948 60 949.518 58.2422 948.534 56.1641C947.549 54.0859 947.057 51.7344 947.057 49.1094C947.057 46.6719 947.549 44.4141 948.534 42.3359C949.534 40.2422 950.94 38.4297 952.753 36.8984C954.581 35.3516 956.784 34.1484 959.362 33.2891C961.94 32.4141 964.815 31.9766 967.987 31.9766C970.909 31.9766 973.581 32.375 976.003 33.1719C978.44 33.9531 980.526 35.1172 982.26 36.6641C984.01 38.2109 985.362 40.1172 986.315 42.3828C987.284 44.6484 987.768 47.2578 987.768 50.2109V52.3672H956.034C956.315 53.3828 956.776 54.3125 957.417 55.1562C958.073 56 958.956 56.7188 960.065 57.3125C961.174 57.9062 962.534 58.3672 964.143 58.6953C965.768 59.0234 967.706 59.1875 969.956 59.1875C971.549 59.1875 973.112 59.0938 974.643 58.9062C976.174 58.7031 977.604 58.4453 978.932 58.1328C980.26 57.8047 981.456 57.4453 982.518 57.0547C983.596 56.6641 984.463 56.2734 985.12 55.8828V63.4062ZM979.12 45.9922C979.042 45.1953 978.799 44.375 978.393 43.5312C978.003 42.6719 977.378 41.8984 976.518 41.2109C975.659 40.5234 974.534 39.9609 973.143 39.5234C971.753 39.0703 970.018 38.8438 967.94 38.8438C965.987 38.8438 964.299 39.0859 962.878 39.5703C961.456 40.0547 960.26 40.6562 959.292 41.375C958.338 42.0938 957.596 42.8672 957.065 43.6953C956.534 44.5234 956.19 45.2891 956.034 45.9922H979.12ZM1038.3 31.9766C1041.45 31.9766 1044.38 32.25 1047.08 32.7969C1049.8 33.3281 1052.3 34.0156 1054.56 34.8594V42.7344C1053.67 42.2344 1052.66 41.75 1051.54 41.2812C1050.43 40.8125 1049.22 40.3984 1047.9 40.0391C1046.59 39.6797 1045.19 39.3906 1043.69 39.1719C1042.19 38.9531 1040.61 38.8438 1038.95 38.8438C1036.89 38.8438 1035.09 38.9922 1033.56 39.2891C1032.03 39.5859 1030.72 39.9844 1029.62 40.4844C1028.53 40.9844 1027.63 41.5703 1026.93 42.2422C1026.23 42.8984 1025.67 43.6016 1025.26 44.3516C1024.86 45.1016 1024.58 45.8672 1024.42 46.6484C1024.26 47.4297 1024.19 48.1875 1024.19 48.9219C1024.19 49.5625 1024.25 50.2578 1024.37 51.0078C1024.51 51.7578 1024.76 52.5078 1025.12 53.2578C1025.5 54.0078 1026.01 54.7266 1026.67 55.4141C1027.33 56.1016 1028.18 56.7109 1029.23 57.2422C1030.29 57.7734 1031.56 58.2031 1033.05 58.5312C1034.53 58.8438 1036.3 59 1038.34 59C1039.37 59 1040.27 58.9688 1041.04 58.9062C1041.8 58.8438 1042.5 58.7578 1043.12 58.6484C1043.76 58.5391 1044.36 58.4062 1044.9 58.25C1045.47 58.0938 1046.05 57.9297 1046.64 57.7578V53.8672H1036.89V46.8125H1055.33V63.2656C1054.18 63.6562 1052.88 64.0156 1051.44 64.3438C1050.02 64.6562 1048.55 64.9219 1047.01 65.1406C1045.5 65.375 1043.98 65.5547 1042.44 65.6797C1040.91 65.8047 1039.47 65.8672 1038.11 65.8672C1036 65.8672 1033.98 65.7266 1032.04 65.4453C1030.1 65.1641 1028.29 64.7344 1026.6 64.1562C1024.93 63.5625 1023.4 62.8125 1022.01 61.9062C1020.63 61 1019.45 59.9219 1018.47 58.6719C1017.5 57.4219 1016.74 55.9922 1016.19 54.3828C1015.66 52.7578 1015.4 50.9375 1015.4 48.9219C1015.4 46.9219 1015.68 45.1094 1016.24 43.4844C1016.8 41.8594 1017.58 40.4219 1018.58 39.1719C1019.6 37.9219 1020.81 36.8438 1022.22 35.9375C1023.64 35.0312 1025.19 34.2891 1026.88 33.7109C1028.58 33.1172 1030.4 32.6797 1032.32 32.3984C1034.26 32.1172 1036.25 31.9766 1038.3 31.9766ZM1096.25 40.0859C1096.02 40.0078 1095.68 39.9062 1095.22 39.7812C1094.79 39.6406 1094.27 39.5078 1093.68 39.3828C1093.08 39.2422 1092.43 39.125 1091.71 39.0312C1091 38.9375 1090.28 38.8906 1089.53 38.8906C1087.97 38.8906 1086.5 39.0859 1085.15 39.4766C1083.8 39.8516 1082.54 40.3594 1081.37 41C1080.2 41.625 1079.11 42.3438 1078.09 43.1562C1077.09 43.9531 1076.17 44.7734 1075.33 45.6172V65H1066.63V32.7969H1075.33V38.0234C1076.37 37.2422 1077.44 36.4922 1078.54 35.7734C1079.65 35.0391 1080.79 34.3906 1081.98 33.8281C1083.18 33.2656 1084.45 32.8203 1085.78 32.4922C1087.11 32.1484 1088.51 31.9766 1090 31.9766C1090.56 31.9766 1091.13 32.0078 1091.71 32.0703C1092.3 32.1172 1092.87 32.1797 1093.42 32.2578C1093.98 32.3359 1094.5 32.4219 1094.99 32.5156C1095.47 32.6094 1095.9 32.7031 1096.25 32.7969V40.0859ZM1131.01 65V61.8359C1129.9 62.4453 1128.71 62.9844 1127.42 63.4531C1126.16 63.9219 1124.84 64.3203 1123.46 64.6484C1122.09 64.9766 1120.67 65.2188 1119.2 65.375C1117.74 65.5469 1116.28 65.6328 1114.79 65.6328C1113.06 65.6328 1111.38 65.4688 1109.75 65.1406C1108.14 64.8125 1106.71 64.2812 1105.46 63.5469C1104.21 62.8125 1103.21 61.8516 1102.44 60.6641C1101.69 59.4766 1101.32 58.0234 1101.32 56.3047C1101.32 54.1328 1101.91 52.3281 1103.1 50.8906C1104.28 49.4375 1106.1 48.25 1108.53 47.3281C1110.97 46.4062 1114.05 45.6953 1117.77 45.1953C1121.5 44.6953 1125.92 44.3047 1131.01 44.0234V43.3438C1131.01 42.8125 1130.87 42.2891 1130.59 41.7734C1130.31 41.2422 1129.79 40.7812 1129.04 40.3906C1128.31 39.9844 1127.29 39.6562 1125.99 39.4062C1124.71 39.1562 1123.07 39.0312 1121.07 39.0312C1119.49 39.0312 1117.93 39.1172 1116.39 39.2891C1114.85 39.4453 1113.37 39.6641 1111.93 39.9453C1110.51 40.2266 1109.16 40.5547 1107.88 40.9297C1106.6 41.3047 1105.43 41.6953 1104.39 42.1016V34.3672C1105.48 34.0859 1106.71 33.8125 1108.07 33.5469C1109.42 33.2812 1110.84 33.0547 1112.31 32.8672C1113.78 32.6641 1115.26 32.5078 1116.76 32.3984C1118.26 32.2734 1119.7 32.2109 1121.07 32.2109C1123.78 32.2109 1126.27 32.4375 1128.55 32.8906C1130.83 33.3281 1132.79 34.0156 1134.43 34.9531C1136.09 35.8906 1137.38 37.0781 1138.3 38.5156C1139.24 39.9531 1139.71 41.6641 1139.71 43.6484V65H1131.01ZM1131.01 50.3047C1127.67 50.4297 1124.82 50.6094 1122.48 50.8438C1120.15 51.0781 1118.21 51.3516 1116.67 51.6641C1115.12 51.9766 1113.9 52.3125 1113.01 52.6719C1112.14 53.0312 1111.48 53.3984 1111.04 53.7734C1110.6 54.1484 1110.33 54.5234 1110.22 54.8984C1110.13 55.2734 1110.08 55.6172 1110.08 55.9297C1110.08 56.3047 1110.18 56.6719 1110.39 57.0312C1110.59 57.375 1110.94 57.6797 1111.44 57.9453C1111.96 58.2109 1112.64 58.4219 1113.48 58.5781C1114.32 58.7344 1115.39 58.8125 1116.67 58.8125C1118.09 58.8125 1119.48 58.7031 1120.84 58.4844C1122.2 58.2656 1123.49 57.9688 1124.71 57.5938C1125.92 57.2031 1127.07 56.75 1128.13 56.2344C1129.21 55.7031 1130.17 55.1406 1131.01 54.5469V50.3047ZM1191.01 48.875C1191.01 50.9375 1190.78 52.7734 1190.33 54.3828C1189.88 55.9766 1189.24 57.3672 1188.41 58.5547C1187.59 59.7422 1186.61 60.75 1185.45 61.5781C1184.31 62.4062 1183.04 63.0703 1181.63 63.5703C1180.23 64.0703 1178.71 64.4375 1177.09 64.6719C1175.46 64.8906 1173.77 65 1172 65H1151.56V32.7969H1171.95C1173.72 32.7969 1175.41 32.9141 1177.04 33.1484C1178.66 33.3672 1180.18 33.7266 1181.59 34.2266C1183.01 34.7266 1184.3 35.3906 1185.45 36.2188C1186.61 37.0312 1187.59 38.0391 1188.41 39.2422C1189.24 40.4297 1189.88 41.8203 1190.33 43.4141C1190.78 45.0078 1191.01 46.8281 1191.01 48.875ZM1182.24 48.875C1182.24 47.3281 1182.04 45.9844 1181.63 44.8438C1181.24 43.7031 1180.6 42.7656 1179.71 42.0312C1178.84 41.2812 1177.69 40.7266 1176.27 40.3672C1174.84 39.9922 1173.11 39.8047 1171.06 39.8047H1160.26V57.9922H1171.06C1173.11 57.9922 1174.84 57.8125 1176.27 57.4531C1177.69 57.0781 1178.84 56.5156 1179.71 55.7656C1180.6 55 1181.24 54.0469 1181.63 52.9062C1182.04 51.7656 1182.24 50.4219 1182.24 48.875ZM1236.78 63.4062C1234.14 64.2812 1231.5 64.9062 1228.86 65.2812C1226.23 65.6719 1223.55 65.8672 1220.8 65.8672C1217.28 65.8672 1214.15 65.4922 1211.4 64.7422C1208.66 63.9766 1206.36 62.875 1204.48 61.4375C1202.61 60 1201.18 58.2422 1200.19 56.1641C1199.21 54.0859 1198.72 51.7344 1198.72 49.1094C1198.72 46.6719 1199.21 44.4141 1200.19 42.3359C1201.19 40.2422 1202.6 38.4297 1204.41 36.8984C1206.24 35.3516 1208.44 34.1484 1211.02 33.2891C1213.6 32.4141 1216.48 31.9766 1219.65 31.9766C1222.57 31.9766 1225.24 32.375 1227.66 33.1719C1230.1 33.9531 1232.19 35.1172 1233.92 36.6641C1235.67 38.2109 1237.02 40.1172 1237.98 42.3828C1238.94 44.6484 1239.43 47.2578 1239.43 50.2109V52.3672H1207.69C1207.98 53.3828 1208.44 54.3125 1209.08 55.1562C1209.73 56 1210.62 56.7188 1211.73 57.3125C1212.84 57.9062 1214.19 58.3672 1215.8 58.6953C1217.43 59.0234 1219.37 59.1875 1221.62 59.1875C1223.21 59.1875 1224.77 59.0938 1226.3 58.9062C1227.84 58.7031 1229.26 58.4453 1230.59 58.1328C1231.92 57.8047 1233.12 57.4453 1234.18 57.0547C1235.26 56.6641 1236.12 56.2734 1236.78 55.8828V63.4062ZM1230.78 45.9922C1230.7 45.1953 1230.46 44.375 1230.05 43.5312C1229.66 42.6719 1229.04 41.8984 1228.18 41.2109C1227.32 40.5234 1226.19 39.9609 1224.8 39.5234C1223.41 39.0703 1221.68 38.8438 1219.6 38.8438C1217.65 38.8438 1215.96 39.0859 1214.54 39.5703C1213.12 40.0547 1211.92 40.6562 1210.95 41.375C1210 42.0938 1209.26 42.8672 1208.73 43.6953C1208.19 44.5234 1207.85 45.2891 1207.69 45.9922H1230.78ZM1279.93 65V46.9531C1279.93 45.75 1279.83 44.6641 1279.62 43.6953C1279.42 42.7109 1279.04 41.875 1278.47 41.1875C1277.93 40.4844 1277.15 39.9453 1276.15 39.5703C1275.17 39.1797 1273.9 38.9844 1272.33 38.9844C1271.15 38.9844 1269.9 39.1484 1268.58 39.4766C1267.29 39.7891 1266 40.2109 1264.72 40.7422C1263.43 41.2734 1262.21 41.8906 1261.04 42.5938C1259.88 43.2969 1258.85 44.0312 1257.94 44.7969V65H1249.25V32.7969H1257.94V37.2031C1259.04 36.5781 1260.2 35.9609 1261.43 35.3516C1262.67 34.7266 1263.98 34.1641 1265.37 33.6641C1266.76 33.1641 1268.24 32.7578 1269.8 32.4453C1271.36 32.1328 1273.01 31.9766 1274.75 31.9766C1276.92 31.9766 1278.86 32.2422 1280.56 32.7734C1282.28 33.2891 1283.73 34.0312 1284.92 35C1286.11 35.9531 1287.01 37.1172 1287.64 38.4922C1288.28 39.8516 1288.6 41.375 1288.6 43.0625V65H1279.93Z" fill="black"/>
<path d="M163.594 32.7969V50.9375C163.594 52.1406 163.695 53.2344 163.898 54.2188C164.102 55.1875 164.477 56.0234 165.023 56.7266C165.57 57.4141 166.336 57.9531 167.32 58.3438C168.305 58.7188 169.586 58.9062 171.164 58.9062C172.352 58.9062 173.594 58.7422 174.891 58.4141C176.203 58.0859 177.5 57.6484 178.781 57.1016C180.062 56.5547 181.281 55.9297 182.438 55.2266C183.609 54.5078 184.656 53.7656 185.578 53V32.7969H194.25V65H185.578V60.5938C184.484 61.2188 183.32 61.8516 182.086 62.4922C180.852 63.1172 179.539 63.6875 178.148 64.2031C176.758 64.7031 175.281 65.1094 173.719 65.4219C172.156 65.75 170.508 65.9141 168.773 65.9141C166.602 65.9141 164.656 65.6484 162.938 65.1172C161.219 64.6016 159.766 63.8672 158.578 62.9141C157.391 61.9453 156.477 60.7812 155.836 59.4219C155.211 58.0469 154.898 56.5156 154.898 54.8281V32.7969H163.594ZM236.951 65V46.9531C236.951 45.75 236.85 44.6641 236.647 43.6953C236.443 42.7109 236.061 41.875 235.498 41.1875C234.951 40.4844 234.178 39.9453 233.178 39.5703C232.193 39.1797 230.92 38.9844 229.357 38.9844C228.17 38.9844 226.92 39.1484 225.607 39.4766C224.311 39.7891 223.022 40.2109 221.74 40.7422C220.459 41.2734 219.232 41.8906 218.061 42.5938C216.904 43.2969 215.873 44.0312 214.967 44.7969V65H206.272V32.7969H214.967V37.2031C216.061 36.5781 217.225 35.9609 218.459 35.3516C219.693 34.7266 221.006 34.1641 222.397 33.6641C223.787 33.1641 225.264 32.7578 226.826 32.4453C228.389 32.1328 230.037 31.9766 231.772 31.9766C233.943 31.9766 235.881 32.2422 237.584 32.7734C239.303 33.2891 240.756 34.0312 241.943 35C243.131 35.9531 244.037 37.1172 244.662 38.4922C245.303 39.8516 245.623 41.375 245.623 43.0625V65H236.951ZM292.988 62.7969C291.863 63.2656 290.731 63.6875 289.59 64.0625C288.449 64.4375 287.27 64.7578 286.051 65.0234C284.832 65.3047 283.543 65.5156 282.184 65.6562C280.84 65.7969 279.395 65.8672 277.848 65.8672C274.567 65.8672 271.543 65.5156 268.777 64.8125C266.027 64.1094 263.652 63.0547 261.652 61.6484C259.668 60.2266 258.121 58.4609 257.012 56.3516C255.902 54.2266 255.348 51.75 255.348 48.9219C255.348 46.0938 255.902 43.625 257.012 41.5156C258.121 39.3906 259.668 37.625 261.652 36.2188C263.652 34.7969 266.027 33.7344 268.777 33.0312C271.543 32.3281 274.567 31.9766 277.848 31.9766C279.395 31.9766 280.84 32.0469 282.184 32.1875C283.543 32.3281 284.832 32.5391 286.051 32.8203C287.27 33.0859 288.449 33.4062 289.59 33.7812C290.731 34.1562 291.863 34.5781 292.988 35.0469V42.875C292.098 42.3906 291.16 41.9141 290.176 41.4453C289.192 40.9609 288.106 40.5312 286.918 40.1562C285.731 39.7656 284.426 39.4531 283.004 39.2188C281.582 38.9688 279.981 38.8438 278.199 38.8438C275.465 38.8438 273.192 39.125 271.379 39.6875C269.582 40.25 268.145 41 267.067 41.9375C265.988 42.875 265.231 43.9531 264.793 45.1719C264.356 46.375 264.137 47.625 264.137 48.9219C264.137 49.7812 264.231 50.6328 264.418 51.4766C264.606 52.3047 264.918 53.0938 265.356 53.8438C265.793 54.5781 266.363 55.2578 267.067 55.8828C267.77 56.5078 268.645 57.0469 269.692 57.5C270.738 57.9531 271.957 58.3125 273.348 58.5781C274.754 58.8281 276.371 58.9531 278.199 58.9531C279.981 58.9531 281.582 58.8438 283.004 58.625C284.426 58.3906 285.731 58.0859 286.918 57.7109C288.106 57.3359 289.192 56.9141 290.176 56.4453C291.16 55.9609 292.098 55.4688 292.988 54.9688V62.7969ZM344.69 48.9219C344.69 51.6875 344.182 54.1328 343.166 56.2578C342.151 58.3672 340.697 60.1328 338.807 61.5547C336.916 62.9766 334.619 64.0547 331.916 64.7891C329.229 65.5078 326.205 65.8672 322.846 65.8672C319.487 65.8672 316.447 65.5078 313.729 64.7891C311.026 64.0547 308.721 62.9766 306.815 61.5547C304.908 60.1328 303.44 58.3672 302.408 56.2578C301.377 54.1328 300.862 51.6875 300.862 48.9219C300.862 46.1562 301.377 43.7188 302.408 41.6094C303.44 39.4844 304.908 37.7109 306.815 36.2891C308.721 34.8672 311.026 33.7969 313.729 33.0781C316.447 32.3438 319.487 31.9766 322.846 31.9766C326.205 31.9766 329.229 32.3438 331.916 33.0781C334.619 33.7969 336.916 34.8672 338.807 36.2891C340.697 37.7109 342.151 39.4844 343.166 41.6094C344.182 43.7188 344.69 46.1562 344.69 48.9219ZM335.901 48.9219C335.901 47.7188 335.705 46.5234 335.315 45.3359C334.94 44.1328 334.26 43.0547 333.276 42.1016C332.307 41.1484 330.979 40.375 329.291 39.7812C327.604 39.1875 325.455 38.8906 322.846 38.8906C321.096 38.8906 319.557 39.0312 318.229 39.3125C316.901 39.5781 315.752 39.9531 314.783 40.4375C313.815 40.9219 313.002 41.4922 312.346 42.1484C311.69 42.7891 311.166 43.4844 310.776 44.2344C310.385 44.9688 310.104 45.7422 309.932 46.5547C309.776 47.3516 309.697 48.1406 309.697 48.9219C309.697 49.7188 309.776 50.5234 309.932 51.3359C310.104 52.1484 310.385 52.9297 310.776 53.6797C311.166 54.4141 311.69 55.1016 312.346 55.7422C313.002 56.3828 313.815 56.9453 314.783 57.4297C315.752 57.8984 316.901 58.2734 318.229 58.5547C319.557 58.8203 321.096 58.9531 322.846 58.9531C325.455 58.9531 327.604 58.6562 329.291 58.0625C330.979 57.4688 332.307 56.6953 333.276 55.7422C334.26 54.7891 334.94 53.7188 335.315 52.5312C335.705 51.3281 335.901 50.125 335.901 48.9219ZM375.672 65H365.547L349.258 32.7969H358.961L370.68 57.0312L382.375 32.7969H392.078L375.672 65ZM434.733 63.4062C432.092 64.2812 429.452 64.9062 426.811 65.2812C424.186 65.6719 421.498 65.8672 418.748 65.8672C415.233 65.8672 412.1 65.4922 409.35 64.7422C406.616 63.9766 404.311 62.875 402.436 61.4375C400.561 60 399.131 58.2422 398.147 56.1641C397.163 54.0859 396.67 51.7344 396.67 49.1094C396.67 46.6719 397.163 44.4141 398.147 42.3359C399.147 40.2422 400.553 38.4297 402.366 36.8984C404.194 35.3516 406.397 34.1484 408.975 33.2891C411.553 32.4141 414.428 31.9766 417.6 31.9766C420.522 31.9766 423.194 32.375 425.616 33.1719C428.053 33.9531 430.139 35.1172 431.873 36.6641C433.623 38.2109 434.975 40.1172 435.928 42.3828C436.897 44.6484 437.381 47.2578 437.381 50.2109V52.3672H405.647C405.928 53.3828 406.389 54.3125 407.03 55.1562C407.686 56 408.569 56.7188 409.678 57.3125C410.788 57.9062 412.147 58.3672 413.756 58.6953C415.381 59.0234 417.319 59.1875 419.569 59.1875C421.163 59.1875 422.725 59.0938 424.256 58.9062C425.788 58.7031 427.217 58.4453 428.545 58.1328C429.873 57.8047 431.069 57.4453 432.131 57.0547C433.209 56.6641 434.077 56.2734 434.733 55.8828V63.4062ZM428.733 45.9922C428.655 45.1953 428.413 44.375 428.006 43.5312C427.616 42.6719 426.991 41.8984 426.131 41.2109C425.272 40.5234 424.147 39.9609 422.756 39.5234C421.366 39.0703 419.631 38.8438 417.553 38.8438C415.6 38.8438 413.913 39.0859 412.491 39.5703C411.069 40.0547 409.873 40.6562 408.905 41.375C407.952 42.0938 407.209 42.8672 406.678 43.6953C406.147 44.5234 405.803 45.2891 405.647 45.9922H428.733ZM476.825 40.0859C476.59 40.0078 476.247 39.9062 475.793 39.7812C475.356 39.6406 474.84 39.5078 474.247 39.3828C473.653 39.2422 472.997 39.125 472.278 39.0312C471.575 38.9375 470.848 38.8906 470.098 38.8906C468.536 38.8906 467.075 39.0859 465.715 39.4766C464.372 39.8516 463.114 40.3594 461.942 41C460.77 41.625 459.676 42.3438 458.661 43.1562C457.661 43.9531 456.739 44.7734 455.895 45.6172V65H447.2V32.7969H455.895V38.0234C456.942 37.2422 458.012 36.4922 459.106 35.7734C460.215 35.0391 461.364 34.3906 462.551 33.8281C463.754 33.2656 465.02 32.8203 466.348 32.4922C467.676 32.1484 469.082 31.9766 470.567 31.9766C471.129 31.9766 471.7 32.0078 472.278 32.0703C472.872 32.1172 473.442 32.1797 473.989 32.2578C474.551 32.3359 475.075 32.4219 475.559 32.5156C476.043 32.6094 476.465 32.7031 476.825 32.7969V40.0859ZM520.182 63.4062C517.542 64.2812 514.901 64.9062 512.26 65.2812C509.635 65.6719 506.948 65.8672 504.198 65.8672C500.682 65.8672 497.549 65.4922 494.799 64.7422C492.065 63.9766 489.76 62.875 487.885 61.4375C486.01 60 484.581 58.2422 483.596 56.1641C482.612 54.0859 482.12 51.7344 482.12 49.1094C482.12 46.6719 482.612 44.4141 483.596 42.3359C484.596 40.2422 486.003 38.4297 487.815 36.8984C489.643 35.3516 491.846 34.1484 494.424 33.2891C497.003 32.4141 499.878 31.9766 503.049 31.9766C505.971 31.9766 508.643 32.375 511.065 33.1719C513.503 33.9531 515.588 35.1172 517.323 36.6641C519.073 38.2109 520.424 40.1172 521.378 42.3828C522.346 44.6484 522.831 47.2578 522.831 50.2109V52.3672H491.096C491.378 53.3828 491.838 54.3125 492.479 55.1562C493.135 56 494.018 56.7188 495.128 57.3125C496.237 57.9062 497.596 58.3672 499.206 58.6953C500.831 59.0234 502.768 59.1875 505.018 59.1875C506.612 59.1875 508.174 59.0938 509.706 58.9062C511.237 58.7031 512.667 58.4453 513.995 58.1328C515.323 57.8047 516.518 57.4453 517.581 57.0547C518.659 56.6641 519.526 56.2734 520.182 55.8828V63.4062ZM514.182 45.9922C514.104 45.1953 513.862 44.375 513.456 43.5312C513.065 42.6719 512.44 41.8984 511.581 41.2109C510.721 40.5234 509.596 39.9609 508.206 39.5234C506.815 39.0703 505.081 38.8438 503.003 38.8438C501.049 38.8438 499.362 39.0859 497.94 39.5703C496.518 40.0547 495.323 40.6562 494.354 41.375C493.401 42.0938 492.659 42.8672 492.128 43.6953C491.596 44.5234 491.253 45.2891 491.096 45.9922H514.182ZM572.094 48.875C572.094 50.9375 571.868 52.7734 571.415 54.3828C570.962 55.9766 570.321 57.3672 569.493 58.5547C568.68 59.7422 567.696 60.75 566.54 61.5781C565.399 62.4062 564.126 63.0703 562.719 63.5703C561.313 64.0703 559.797 64.4375 558.172 64.6719C556.547 64.8906 554.852 65 553.087 65H532.649V32.7969H553.04C554.805 32.7969 556.501 32.9141 558.126 33.1484C559.751 33.3672 561.266 33.7266 562.672 34.2266C564.094 34.7266 565.383 35.3906 566.54 36.2188C567.696 37.0312 568.68 38.0391 569.493 39.2422C570.321 40.4297 570.962 41.8203 571.415 43.4141C571.868 45.0078 572.094 46.8281 572.094 48.875ZM563.329 48.875C563.329 47.3281 563.126 45.9844 562.719 44.8438C562.329 43.7031 561.688 42.7656 560.797 42.0312C559.922 41.2812 558.774 40.7266 557.352 40.3672C555.93 39.9922 554.196 39.8047 552.149 39.8047H541.344V57.9922H552.149C554.196 57.9922 555.93 57.8125 557.352 57.4531C558.774 57.0781 559.922 56.5156 560.797 55.7656C561.688 55 562.329 54.0469 562.719 52.9062C563.126 51.7656 563.329 50.4219 563.329 48.875Z" fill="#E5E5E5"/>
<path d="M-291.516 48.875C-291.516 50.9375 -291.742 52.7734 -292.195 54.3828C-292.648 55.9766 -293.289 57.3672 -294.117 58.5547C-294.93 59.7422 -295.914 60.75 -297.07 61.5781C-298.211 62.4062 -299.484 63.0703 -300.891 63.5703C-302.297 64.0703 -303.812 64.4375 -305.438 64.6719C-307.062 64.8906 -308.758 65 -310.523 65H-330.961V32.7969H-310.57C-308.805 32.7969 -307.109 32.9141 -305.484 33.1484C-303.859 33.3672 -302.344 33.7266 -300.938 34.2266C-299.516 34.7266 -298.227 35.3906 -297.07 36.2188C-295.914 37.0312 -294.93 38.0391 -294.117 39.2422C-293.289 40.4297 -292.648 41.8203 -292.195 43.4141C-291.742 45.0078 -291.516 46.8281 -291.516 48.875ZM-300.281 48.875C-300.281 47.3281 -300.484 45.9844 -300.891 44.8438C-301.281 43.7031 -301.922 42.7656 -302.812 42.0312C-303.688 41.2812 -304.836 40.7266 -306.258 40.3672C-307.68 39.9922 -309.414 39.8047 -311.461 39.8047H-322.266V57.9922H-311.461C-309.414 57.9922 -307.68 57.8125 -306.258 57.4531C-304.836 57.0781 -303.688 56.5156 -302.812 55.7656C-301.922 55 -301.281 54.0469 -300.891 52.9062C-300.484 51.7656 -300.281 50.4219 -300.281 48.875ZM-254.346 65V61.8359C-255.455 62.4453 -256.65 62.9844 -257.932 63.4531C-259.197 63.9219 -260.518 64.3203 -261.893 64.6484C-263.268 64.9766 -264.689 65.2188 -266.158 65.375C-267.611 65.5469 -269.08 65.6328 -270.564 65.6328C-272.299 65.6328 -273.978 65.4688 -275.603 65.1406C-277.213 64.8125 -278.643 64.2812 -279.893 63.5469C-281.143 62.8125 -282.15 61.8516 -282.916 60.6641C-283.666 59.4766 -284.041 58.0234 -284.041 56.3047C-284.041 54.1328 -283.447 52.3281 -282.26 50.8906C-281.072 49.4375 -279.26 48.25 -276.822 47.3281C-274.385 46.4062 -271.307 45.6953 -267.588 45.1953C-263.853 44.6953 -259.439 44.3047 -254.346 44.0234V43.3438C-254.346 42.8125 -254.486 42.2891 -254.768 41.7734C-255.049 41.2422 -255.564 40.7812 -256.314 40.3906C-257.049 39.9844 -258.064 39.6562 -259.361 39.4062C-260.643 39.1562 -262.283 39.0312 -264.283 39.0312C-265.861 39.0312 -267.424 39.1172 -268.971 39.2891C-270.502 39.4453 -271.986 39.6641 -273.424 39.9453C-274.846 40.2266 -276.197 40.5547 -277.478 40.9297C-278.76 41.3047 -279.924 41.6953 -280.971 42.1016V34.3672C-279.877 34.0859 -278.65 33.8125 -277.291 33.5469C-275.932 33.2812 -274.518 33.0547 -273.049 32.8672C-271.58 32.6641 -270.096 32.5078 -268.596 32.3984C-267.096 32.2734 -265.658 32.2109 -264.283 32.2109C-261.58 32.2109 -259.088 32.4375 -256.807 32.8906C-254.525 33.3281 -252.564 34.0156 -250.924 34.9531C-249.268 35.8906 -247.978 37.0781 -247.057 38.5156C-246.119 39.9531 -245.65 41.6641 -245.65 43.6484V65H-254.346ZM-254.346 50.3047C-257.689 50.4297 -260.533 50.6094 -262.877 50.8438C-265.205 51.0781 -267.143 51.3516 -268.689 51.6641C-270.236 51.9766 -271.455 52.3125 -272.346 52.6719C-273.221 53.0312 -273.877 53.3984 -274.314 53.7734C-274.752 54.1484 -275.025 54.5234 -275.135 54.8984C-275.228 55.2734 -275.275 55.6172 -275.275 55.9297C-275.275 56.3047 -275.174 56.6719 -274.971 57.0312C-274.768 57.375 -274.416 57.6797 -273.916 57.9453C-273.4 58.2109 -272.721 58.4219 -271.877 58.5781C-271.033 58.7344 -269.971 58.8125 -268.689 58.8125C-267.268 58.8125 -265.877 58.7031 -264.518 58.4844C-263.158 58.2656 -261.869 57.9688 -260.65 57.5938C-259.432 57.2031 -258.291 56.75 -257.228 56.2344C-256.15 55.7031 -255.189 55.1406 -254.346 54.5469V50.3047ZM-204.168 40.0859C-204.402 40.0078 -204.746 39.9062 -205.199 39.7812C-205.637 39.6406 -206.152 39.5078 -206.746 39.3828C-207.34 39.2422 -207.996 39.125 -208.715 39.0312C-209.418 38.9375 -210.144 38.8906 -210.894 38.8906C-212.457 38.8906 -213.918 39.0859 -215.277 39.4766C-216.621 39.8516 -217.879 40.3594 -219.051 41C-220.223 41.625 -221.316 42.3438 -222.332 43.1562C-223.332 43.9531 -224.254 44.7734 -225.098 45.6172V65H-233.793V32.7969H-225.098V38.0234C-224.051 37.2422 -222.98 36.4922 -221.887 35.7734C-220.777 35.0391 -219.629 34.3906 -218.441 33.8281C-217.238 33.2656 -215.973 32.8203 -214.644 32.4922C-213.316 32.1484 -211.91 31.9766 -210.426 31.9766C-209.863 31.9766 -209.293 32.0078 -208.715 32.0703C-208.121 32.1172 -207.551 32.1797 -207.004 32.2578C-206.441 32.3359 -205.918 32.4219 -205.433 32.5156C-204.949 32.6094 -204.527 32.7031 -204.168 32.7969V40.0859ZM-166.131 65C-166.287 63.25 -166.709 61.7188 -167.396 60.4062C-168.084 59.0781 -168.951 57.9375 -169.998 56.9844C-171.029 56.0312 -172.201 55.2422 -173.513 54.6172C-174.81 53.9922 -176.146 53.5 -177.521 53.1406C-178.896 52.7656 -180.271 52.5078 -181.646 52.3672C-183.006 52.2109 -184.271 52.1328 -185.443 52.1328H-188.021V65H-196.717V32.7969H-188.021V45.2188H-186.24C-185.037 45.2188 -183.779 45.125 -182.467 44.9375C-181.154 44.75 -179.857 44.4531 -178.576 44.0469C-177.279 43.6406 -176.037 43.1172 -174.849 42.4766C-173.662 41.8359 -172.599 41.0547 -171.662 40.1328C-170.724 39.2109 -169.943 38.1484 -169.318 36.9453C-168.693 35.7266 -168.303 34.3438 -168.146 32.7969H-159.287C-159.443 34.5 -159.787 36.0391 -160.318 37.4141C-160.834 38.7891 -161.482 40.0234 -162.263 41.1172C-163.029 42.1953 -163.888 43.1406 -164.842 43.9531C-165.795 44.7656 -166.771 45.4688 -167.771 46.0625C-168.771 46.6406 -169.771 47.125 -170.771 47.5156C-171.756 47.8906 -172.678 48.1797 -173.537 48.3828C-172.443 48.5547 -171.31 48.8281 -170.138 49.2031C-168.951 49.5625 -167.779 50.0469 -166.623 50.6562C-165.467 51.25 -164.365 51.9844 -163.318 52.8594C-162.256 53.7344 -161.303 54.7578 -160.459 55.9297C-159.615 57.1016 -158.912 58.4375 -158.349 59.9375C-157.787 61.4375 -157.428 63.125 -157.271 65H-166.131ZM-119.353 32.7969V50.9375C-119.353 52.1406 -119.252 53.2344 -119.048 54.2188C-118.845 55.1875 -118.47 56.0234 -117.923 56.7266C-117.377 57.4141 -116.611 57.9531 -115.627 58.3438C-114.642 58.7188 -113.361 58.9062 -111.783 58.9062C-110.595 58.9062 -109.353 58.7422 -108.056 58.4141C-106.744 58.0859 -105.447 57.6484 -104.166 57.1016C-102.884 56.5547 -101.666 55.9297 -100.509 55.2266C-99.3375 54.5078 -98.2906 53.7656 -97.3687 53V32.7969H-88.6969V65H-97.3687V60.5938C-98.4625 61.2188 -99.6266 61.8516 -100.861 62.4922C-102.095 63.1172 -103.408 63.6875 -104.798 64.2031C-106.189 64.7031 -107.666 65.1094 -109.228 65.4219C-110.791 65.75 -112.439 65.9141 -114.173 65.9141C-116.345 65.9141 -118.291 65.6484 -120.009 65.1172C-121.728 64.6016 -123.181 63.8672 -124.369 62.9141C-125.556 61.9453 -126.47 60.7812 -127.111 59.4219C-127.736 58.0469 -128.048 56.5156 -128.048 54.8281V32.7969H-119.353ZM-47.0503 40.0859C-47.2847 40.0078 -47.6284 39.9062 -48.0816 39.7812C-48.5191 39.6406 -49.0347 39.5078 -49.6284 39.3828C-50.2222 39.2422 -50.8784 39.125 -51.5972 39.0312C-52.3003 38.9375 -53.0269 38.8906 -53.7769 38.8906C-55.3394 38.8906 -56.8003 39.0859 -58.1597 39.4766C-59.5034 39.8516 -60.7612 40.3594 -61.9331 41C-63.105 41.625 -64.1987 42.3438 -65.2144 43.1562C-66.2144 43.9531 -67.1362 44.7734 -67.98 45.6172V65H-76.6753V32.7969H-67.98V38.0234C-66.9331 37.2422 -65.8628 36.4922 -64.7691 35.7734C-63.6597 35.0391 -62.5112 34.3906 -61.3237 33.8281C-60.1206 33.2656 -58.855 32.8203 -57.5269 32.4922C-56.1987 32.1484 -54.7925 31.9766 -53.3081 31.9766C-52.7456 31.9766 -52.1753 32.0078 -51.5972 32.0703C-51.0034 32.1172 -50.4331 32.1797 -49.8862 32.2578C-49.3237 32.3359 -48.8003 32.4219 -48.3159 32.5156C-47.8316 32.6094 -47.4097 32.7031 -47.0503 32.7969V40.0859ZM-2.8725 56.1172C-2.8725 57.3672 -3.03656 58.4531 -3.36469 59.375C-3.69281 60.2969 -4.15375 61.0938 -4.7475 61.7656C-5.32562 62.4219 -6.02875 62.9609 -6.85687 63.3828C-7.66937 63.7891 -8.57562 64.1172 -9.57562 64.3672C-10.56 64.6016 -11.6147 64.7656 -12.7397 64.8594C-13.8647 64.9531 -15.0287 65 -16.2319 65H-39.5991V32.7969H-16.6537C-15.7319 32.7969 -14.81 32.8359 -13.8881 32.9141C-12.9506 32.9922 -12.06 33.1406 -11.2162 33.3594C-10.3725 33.5625 -9.59125 33.8516 -8.8725 34.2266C-8.13812 34.6016 -7.50531 35.0938 -6.97406 35.7031C-6.42719 36.3125 -6.00531 37.0469 -5.70844 37.9062C-5.39594 38.7656 -5.23969 39.7812 -5.23969 40.9531C-5.23969 43.0469 -5.75531 44.7109 -6.78656 45.9453C-7.81781 47.1641 -9.44281 47.9766 -11.6616 48.3828C-10.0991 48.4922 -8.76312 48.7344 -7.65375 49.1094C-6.52875 49.4688 -5.61469 49.9688 -4.91156 50.6094C-4.20844 51.2344 -3.69281 52.0078 -3.36469 52.9297C-3.03656 53.8359 -2.8725 54.8984 -2.8725 56.1172ZM-13.7241 42.3359C-13.7241 41.9297 -13.7866 41.5469 -13.9116 41.1875C-14.0366 40.8125 -14.2631 40.4844 -14.5912 40.2031C-14.9194 39.9219 -15.3647 39.6953 -15.9272 39.5234C-16.4897 39.3516 -17.2084 39.2656 -18.0834 39.2656H-30.9037V45.3125H-18.0834C-17.2084 45.3125 -16.4897 45.2344 -15.9272 45.0781C-15.3647 44.9219 -14.9194 44.7109 -14.5912 44.4453C-14.2631 44.1797 -14.0366 43.8672 -13.9116 43.5078C-13.7866 43.1328 -13.7241 42.7422 -13.7241 42.3359ZM-11.7084 55.1094C-11.7084 54.375 -11.8334 53.7891 -12.0834 53.3516C-12.3334 52.8984 -12.7241 52.5547 -13.2553 52.3203C-13.7866 52.0703 -14.4741 51.9062 -15.3178 51.8281C-16.1616 51.75 -17.1694 51.7109 -18.3412 51.7109H-30.9037V58.5312H-18.3412C-17.1694 58.5312 -16.1616 58.4922 -15.3178 58.4141C-14.4741 58.3359 -13.7866 58.1719 -13.2553 57.9219C-12.7241 57.6719 -12.3334 57.3281 -12.0834 56.8906C-11.8334 56.4375 -11.7084 55.8438 -11.7084 55.1094ZM34.2975 65V61.8359C33.1881 62.4453 31.9928 62.9844 30.7115 63.4531C29.4459 63.9219 28.1256 64.3203 26.7506 64.6484C25.3756 64.9766 23.9537 65.2188 22.485 65.375C21.0319 65.5469 19.5631 65.6328 18.0787 65.6328C16.3444 65.6328 14.6647 65.4688 13.0397 65.1406C11.4303 64.8125 10.0006 64.2812 8.75061 63.5469C7.50061 62.8125 6.4928 61.8516 5.72717 60.6641C4.97717 59.4766 4.60217 58.0234 4.60217 56.3047C4.60217 54.1328 5.19592 52.3281 6.38342 50.8906C7.57092 49.4375 9.38342 48.25 11.8209 47.3281C14.2584 46.4062 17.3365 45.6953 21.0553 45.1953C24.7897 44.6953 29.2037 44.3047 34.2975 44.0234V43.3438C34.2975 42.8125 34.1569 42.2891 33.8756 41.7734C33.5944 41.2422 33.0787 40.7812 32.3287 40.3906C31.5944 39.9844 30.5787 39.6562 29.2819 39.4062C28.0006 39.1562 26.36 39.0312 24.36 39.0312C22.7819 39.0312 21.2194 39.1172 19.6725 39.2891C18.1412 39.4453 16.6569 39.6641 15.2194 39.9453C13.7975 40.2266 12.4459 40.5547 11.1647 40.9297C9.88342 41.3047 8.71936 41.6953 7.67249 42.1016V34.3672C8.76624 34.0859 9.9928 33.8125 11.3522 33.5469C12.7115 33.2812 14.1256 33.0547 15.5944 32.8672C17.0631 32.6641 18.5475 32.5078 20.0475 32.3984C21.5475 32.2734 22.985 32.2109 24.36 32.2109C27.0631 32.2109 29.5553 32.4375 31.8365 32.8906C34.1178 33.3281 36.0787 34.0156 37.7194 34.9531C39.3756 35.8906 40.6647 37.0781 41.5865 38.5156C42.524 39.9531 42.9928 41.6641 42.9928 43.6484V65H34.2975ZM34.2975 50.3047C30.9537 50.4297 28.11 50.6094 25.7662 50.8438C23.4381 51.0781 21.5006 51.3516 19.9537 51.6641C18.4069 51.9766 17.1881 52.3125 16.2975 52.6719C15.4225 53.0312 14.7662 53.3984 14.3287 53.7734C13.8912 54.1484 13.6178 54.5234 13.5084 54.8984C13.4147 55.2734 13.3678 55.6172 13.3678 55.9297C13.3678 56.3047 13.4694 56.6719 13.6725 57.0312C13.8756 57.375 14.2272 57.6797 14.7272 57.9453C15.2428 58.2109 15.9225 58.4219 16.7662 58.5781C17.61 58.7344 18.6725 58.8125 19.9537 58.8125C21.3756 58.8125 22.7662 58.7031 24.1256 58.4844C25.485 58.2656 26.774 57.9688 27.9928 57.5938C29.2115 57.2031 30.3522 56.75 31.4147 56.2344C32.4928 55.7031 33.4537 55.1406 34.2975 54.5469V50.3047ZM85.53 65V46.9531C85.53 45.75 85.4284 44.6641 85.2253 43.6953C85.0222 42.7109 84.6394 41.875 84.0769 41.1875C83.53 40.4844 82.7566 39.9453 81.7566 39.5703C80.7722 39.1797 79.4987 38.9844 77.9362 38.9844C76.7487 38.9844 75.4987 39.1484 74.1862 39.4766C72.8894 39.7891 71.6003 40.2109 70.3191 40.7422C69.0378 41.2734 67.8112 41.8906 66.6394 42.5938C65.4831 43.2969 64.4519 44.0312 63.5456 44.7969V65H54.8503V32.7969H63.5456V37.2031C64.6394 36.5781 65.8034 35.9609 67.0378 35.3516C68.2722 34.7266 69.5847 34.1641 70.9753 33.6641C72.3659 33.1641 73.8425 32.7578 75.405 32.4453C76.9675 32.1328 78.6159 31.9766 80.3503 31.9766C82.5222 31.9766 84.4597 32.2422 86.1628 32.7734C87.8816 33.2891 89.3347 34.0312 90.5222 35C91.7097 35.9531 92.6159 37.1172 93.2409 38.4922C93.8816 39.8516 94.2019 41.375 94.2019 43.0625V65H85.53Z" fill="#E5E5E5"/>
</g>
<defs>
<clipPath id="clip0_2_3">
<rect width="1920" height="6285" fill="white" transform="translate(0 -1778)"/>
</clipPath>
</defs>
</svg>
